<?xml version="1.0" encoding="UTF-8"?>
<svg id="_레이어_2" data-name="레이어 2" xmlns="http://www.w3.org/2000/svg" viewBox="0 0 121 32.23">
  <g id="_레이어_1-2" data-name="레이어 1">
    <g>
      <path d="m10.04,19.22h-.09v12.15H0V.86h9.91v11.25h.09L18.14.86h12.07l-11.46,13.96,12.02,16.55h-12.58l-8.14-12.15Z"/>
      <path d="m42.92,19.22h-.09v12.15h-9.95V.86h9.91v11.25h.09L51.02.86h12.07l-11.46,13.96,12.02,16.55h-12.58l-8.14-12.15Z"/>
      <path d="m62.31,15.94c0-2.44.43-4.65,1.29-6.61.86-1.97,2.05-3.64,3.55-5.02,1.51-1.38,3.3-2.44,5.36-3.19,2.07-.75,4.31-1.12,6.72-1.12s4.65.37,6.72,1.12c2.07.75,3.86,1.81,5.39,3.19,1.52,1.38,2.71,3.05,3.58,5.02.86,1.97,1.29,4.17,1.29,6.61s-.43,4.67-1.29,6.68c-.86,2.01-2.05,3.73-3.58,5.15-1.52,1.42-3.32,2.52-5.39,3.3s-4.31,1.16-6.72,1.16-4.65-.39-6.72-1.16-3.86-1.87-5.36-3.3c-1.51-1.42-2.69-3.14-3.55-5.15-.86-2.01-1.29-4.24-1.29-6.68Zm10.9,0c0,1.01.15,1.93.45,2.76.3.83.72,1.55,1.25,2.15s1.17,1.07,1.92,1.4c.75.33,1.55.5,2.41.5s1.66-.16,2.39-.5c.73-.33,1.37-.8,1.92-1.4s.97-1.32,1.27-2.15c.3-.83.45-1.75.45-2.76s-.15-1.87-.45-2.69c-.3-.82-.73-1.51-1.27-2.07s-1.18-1-1.92-1.31c-.73-.32-1.53-.47-2.39-.47s-1.67.16-2.41.47c-.75.32-1.39.75-1.92,1.31s-.95,1.25-1.25,2.07c-.3.82-.45,1.72-.45,2.69Z"/>
      <path d="m100.53.86h10.34v21.68h10.13v8.83h-20.47V.86Z"/>
    </g>
  </g>
</svg>